# xmcd
#
# Track frame offsets:
#	150
#	19247
#	43532
#	65275
#	80154
#	107750
#	125610
#	139712
#	161597
#	181102
#	215797
#	231827
#	246572
#	262692
#	280350
#	300375
#	320030
#	337310
#
# Disc length: 4727 seconds
#
# Revision: 0
# Processed by: cddbd v1.5.2PL0 Copyright (c) Steve Scherf et al.
# Submitted via: audiograbber 1.83.01
#
DISCID=0f127512
DTITLE=Wynonna - Wynonna Collection
DYEAR=1997
DGENRE=Country
TTITLE0=No One Else On Earth (Club Mix)
TTITLE1=Making My Way
TTITLE2=Somebody To Love You
TTITLE3=Change The World
TTITLE4=Heaven Help My Heart
TTITLE5=Healing (Duet With Michael English)
TTITLE6=Rock Bottom (Single Version)
TTITLE7=To Be Loved By You
TTITLE8=Father Sun
TTITLE9=Freebird
TTITLE10=Let's Make A Baby King
TTITLE11=Girls With Guitars
TTITLE12=Only Love
TTITLE13=I Saw The Light
TTITLE14=She Is His Only Need
TTITLE15=My Strongest Weakness
TTITLE16=Is It Over Yet (Single Version)
TTITLE17=Tell Me Why
EXTD=
EXTT0=
EXTT1=
EXTT2=
EXTT3=
EXTT4=
EXTT5=
EXTT6=
EXTT7=
EXTT8=
EXTT9=
EXTT10=
EXTT11=
EXTT12=
EXTT13=
EXTT14=
EXTT15=
EXTT16=
EXTT17=
PLAYORDER=
